0
SECTION
2
HEADER
9
$INSUNITS
70
4
9
$ACADVER
1
AC1014
9
$HANDSEED
5
FFFF
0
ENDSEC
0
SECTION
2
TABLES
0
TABLE
2
VPORT
5
8
100
AcDbSymbolTable
0
ENDTAB
0
TABLE
2
LTYPE
5
5
100
AcDbSymbolTable
0
LTYPE
5
14
100
AcDbSymbolTableRecord
100
AcDbLinetypeTableRecord
2
BYBLOCK
70
0
0
LTYPE
5
15
100
AcDbSymbolTableRecord
100
AcDbLinetypeTableRecord
2
BYLAYER
70
0
0
LTYPE
5
16
100
AcDbSymbolTableRecord
100
AcDbLinetypeTableRecord
2
DASHED
70
0
3
Dashed __ __ __ __ __ __ __ __ __ __ __ __ __ _
72
65
73
2
40
0.75
49
0.5
74
0
49
-0.25
74
0
0
ENDTAB
0
TABLE
2
LAYER
5
2
100
AcDbSymbolTable
70
2
0
LAYER
5
50
100
AcDbSymbolTableRecord
100
AcDbLayerTableRecord
2
0
70
0
62
7
6
CONTINUOUS
0
ENDTAB
0
TABLE
2
STYLE
5
3
100
AcDbSymbolTable
70
1
0
STYLE
5
11
100
AcDbSymbolTableRecord
100
AcDbTextStyleTableRecord
2
STANDARD
70
0
0
ENDTAB
0
TABLE
2
VIEW
5
6
100
AcDbSymbolTable
70
0
0
ENDTAB
0
TABLE
2
UCS
5
7
100
AcDbSymbolTable
70
0
0
ENDTAB
0
TABLE
2
APPID
5
9
100
AcDbSymbolTable
70
2
0
APPID
5
12
100
AcDbSymbolTableRecord
100
AcDbRegAppTableRecord
2
ACAD
70
0
0
ENDTAB
0
TABLE
2
DIMSTYLE
5
A
100
AcDbSymbolTable
70
1
0
ENDTAB
0
TABLE
2
BLOCK_RECORD
5
1
100
AcDbSymbolTable
70
1
0
BLOCK_RECORD
5
1F
100
AcDbSymbolTableRecord
100
AcDbBlockTableRecord
2
*MODEL_SPACE
0
BLOCK_RECORD
5
1B
100
AcDbSymbolTableRecord
100
AcDbBlockTableRecord
2
*PAPER_SPACE
0
ENDTAB
0
ENDSEC
0
SECTION
2
BLOCKS
0
BLOCK
5
20
100
AcDbEntity
100
AcDbBlockBegin
2
*MODEL_SPACE
0
ENDBLK
5
21
100
AcDbEntity
100
AcDbBlockEnd
0
BLOCK
5
1C
100
AcDbEntity
100
AcDbBlockBegin
2
*PAPER_SPACE
0
ENDBLK
5
1D
100
AcDbEntity
100
AcDbBlockEnd
0
ENDSEC
0
SECTION
2
ENTITIES
0
CIRCLE
5
100
100
AcDbEntity
8
0
100
AcDbCircle
10
42.00000062584877
20
-13.000000193715096
30
0
40
2.2499999999999964
210
0
220
0
230
1
0
CIRCLE
5
101
100
AcDbEntity
8
0
100
AcDbCircle
10
37.500000558793545
20
-40.000000596046448
30
0
40
1.4999999999999991
210
0
220
0
230
1
0
CIRCLE
5
102
100
AcDbEntity
8
0
100
AcDbCircle
10
-40
20
-40
30
0
40
1.5000000000000036
210
0
220
-0
230
1
0
CIRCLE
5
103
100
AcDbEntity
8
0
100
AcDbCircle
10
-42.00000062584877
20
-13.000000193715096
30
0
40
7.5999999999999996
210
0
220
-0
230
1
0
LWPOLYLINE
5
104
100
AcDbEntity
8
0
100
AcDbPolyline
90
8
70
1
43
0.0
10
-54.499999701976776
20
-4.5000003725290272
10
-54.5
20
-51
10
-47
20
-51.000001415610299
10
-47
20
-54.5
10
47
20
-54.500000819563866
10
47
20
-51.000001415610299
10
53.000000819563866
20
-51
10
53.000000819563866
20
-4.5000003725290227
0
LWPOLYLINE
5
105
100
AcDbEntity
8
0
100
AcDbPolyline
90
4
70
1
43
0.0
10
49.000000730156898
20
-43.000000640749931
10
43.000000640749931
20
-43.000000640749931
10
43.000000640749931
20
-37.000000551342964
10
49.000000730156898
20
-37.000000551342964
0
LWPOLYLINE
5
106
100
AcDbEntity
8
0
100
AcDbPolyline
90
4
70
1
43
0.0
10
40.500000603497028
20
-52.000000774860382
10
34.500000514090061
20
-52.000000774860382
10
34.500000514090061
20
-46.000000685453415
10
40.500000603497028
20
-46.000000685453415
0
LWPOLYLINE
5
107
100
AcDbEntity
8
0
100
AcDbPolyline
90
4
70
1
43
0.0
10
32.000000476837158
20
-43.000000640749931
10
26.000000387430191
20
-43.000000640749931
10
26.000000387430191
20
-37.000000551342964
10
32.000000476837158
20
-37.000000551342964
0
LWPOLYLINE
5
108
100
AcDbEntity
8
0
100
AcDbPolyline
90
4
70
1
43
0.0
10
40.500000603497028
20
-34.000000506639481
10
34.500000514090061
20
-34.000000506639481
10
34.500000514090061
20
-28.000000417232513
10
40.500000603497028
20
-28.000000417232513
0
LWPOLYLINE
5
109
100
AcDbEntity
8
0
100
AcDbPolyline
90
4
70
1
43
0.0
10
12.19999972730875
20
-42.999999038875103
10
6.1999998614192009
20
-42.999999038875103
10
6.1999998614192009
20
-36.999999172985554
10
12.19999972730875
20
-36.999999172985554
0
LWPOLYLINE
5
110
100
AcDbEntity
8
0
100
AcDbPolyline
90
4
70
1
43
0.0
10
-6.0000000894069672
20
-37.000000551342964
10
-12.000000178813934
20
-37.000000551342964
10
-12.000000178813934
20
-43.000000640749931
10
-6.0000000894069672
20
-43.000000640749931
0
LWPOLYLINE
5
111
100
AcDbEntity
8
0
100
AcDbPolyline
90
4
70
1
43
0.0
10
4.0000000596046448
20
-48.500000722706318
10
-4.0000000596046448
20
-48.500000722706318
10
-4.0000000596046448
20
-41.000000610947609
10
4.0000000596046448
20
-41.000000610947609
0
LWPOLYLINE
5
112
100
AcDbEntity
8
0
100
AcDbPolyline
90
4
70
1
43
0.0
10
-36.293607652027674
20
-42.010051115478639
10
-32.050966901688113
20
-46.252691865818193
10
-27.808326151348556
20
-42.010051115478639
10
-32.050966901688113
20
-37.767410365139078
0
LWPOLYLINE
5
113
100
AcDbEntity
8
0
100
AcDbPolyline
90
4
70
1
43
0.0
10
-42.69360765202768
20
-35.610051115478633
10
-38.450966901688112
20
-39.852691865818187
10
-34.208326151348551
20
-35.610051115478633
10
-38.450966901688112
20
-31.367410365139072
0
LWPOLYLINE
5
114
100
AcDbEntity
8
0
100
AcDbPolyline
90
4
70
1
43
0.0
10
50.090144573624045
20
-15.575111110820876
10
46.233418858035115
20
-20.171377838024451
10
41.637152130831524
20
-16.314652122435525
10
45.49387784642046
20
-11.71838539523195
0
LWPOLYLINE
5
115
100
AcDbEntity
8
0
100
AcDbPolyline
90
4
70
1
43
0.0
10
41.639391957819505
20
-11.042278166225728
10
37.78266624223059
20
-15.638544893429305
10
33.186399515027013
20
-11.781819177840379
10
37.043125230615935
20
-7.1855524506368038
0
LWPOLYLINE
5
116
100
AcDbEntity
8
0
100
AcDbPolyline
90
4
70
1
43
0.0
10
7.0000001043081284
20
-20.000000298023224
10
-7.0000001043081284
20
-20.000000298023224
10
-7.0000001043081284
20
-4.5000000670552254
10
7.0000001043081284
20
-4.5000000670552254
0
ENDSEC
0
SECTION
2
OBJECTS
0
DICTIONARY
5
C
100
AcDbDictionary
3
ACAD_GROUP
350
D
3
ACAD_MLINESTYLE
350
17
0
DICTIONARY
5
D
100
AcDbDictionary
0
DICTIONARY
5
1A
330
C
100
AcDbDictionary
0
DICTIONARY
5
17
100
AcDbDictionary
0
ENDSEC
0
EOF
